<?xml version="1.0" standalone="no"?>
<!DOCTYPE svg PUBLIC "-//W3C//DTD SVG 20010904//EN"
 "http://www.w3.org/TR/2001/REC-SVG-20010904/DTD/svg10.dtd">
<svg version="1.0" xmlns="http://www.w3.org/2000/svg"
 width="1040.000000pt" height="1040.000000pt" viewBox="0 0 1040.000000 1040.000000"
 preserveAspectRatio="xMidYMid meet">
<metadata>
Created by potrace 1.14, written by Peter Selinger 2001-2017
</metadata>
<g transform="translate(0.000000,1040.000000) scale(0.100000,-0.100000)"
fill="#000000" stroke="none">
<path d="M3567 10394 c-1 -1 -130 -5 -287 -7 -157 -3 -298 -8 -315 -10 -16 -2
-52 -7 -80 -11 -27 -4 -70 -12 -95 -18 -25 -5 -57 -12 -72 -15 -37 -6 -190
-55 -255 -81 -29 -12 -53 -18 -53 -14 0 4 -4 3 -8 -3 -4 -5 -38 -25 -77 -44
-38 -18 -86 -43 -105 -55 -64 -40 -185 -120 -190 -126 -3 -4 -14 -13 -26 -21
-87 -59 -255 -225 -364 -359 -25 -30 -48 -57 -51 -60 -10 -9 -151 -213 -156
-228 -5 -11 464 -13 3248 -12 1790 1 3261 0 3269 -3 8 -2 28 -9 43 -15 16 -7
31 -12 35 -12 14 -1 53 -49 67 -83 8 -20 18 -60 21 -89 3 -29 8 -55 10 -57 2
-2 -1 -10 -7 -17 -6 -7 -7 -19 -3 -25 4 -7 6 -47 5 -88 -1 -42 -4 -854 -6
-1806 -3 -1821 -7 -2100 -30 -2304 -4 -30 -8 -75 -11 -100 -6 -59 -12 -106
-14 -106 -1 0 -3 -9 -4 -20 -2 -11 -6 -44 -10 -74 -4 -30 -10 -63 -13 -75 -2
-12 -6 -30 -8 -41 -3 -18 -41 -188 -50 -225 -28 -107 -106 -354 -135 -425 -7
-16 -19 -46 -27 -65 -23 -55 -30 -72 -48 -115 -31 -69 -124 -258 -156 -315
-46 -81 -120 -204 -128 -210 -7 -6 -28 -39 -38 -60 -4 -8 -11 -19 -15 -25 -5
-5 -43 -57 -85 -115 -43 -58 -82 -110 -88 -116 -5 -6 -23 -27 -38 -47 -121
-153 -356 -394 -526 -537 -30 -25 -61 -52 -70 -61 -9 -8 -36 -30 -61 -49 -25
-19 -47 -37 -50 -40 -7 -8 -182 -137 -245 -181 -27 -18 -52 -36 -55 -40 -25
-27 -336 -205 -480 -275 -52 -25 -106 -51 -120 -59 -14 -7 -28 -14 -33 -14 -4
0 -24 -8 -45 -17 -92 -39 -145 -59 -252 -96 -63 -22 -125 -42 -138 -44 -13 -3
-42 -11 -65 -19 -39 -13 -109 -32 -149 -41 -10 -2 -28 -6 -40 -10 -26 -6 -52
-11 -88 -18 -14 -3 -36 -7 -50 -10 -14 -3 -36 -8 -50 -11 -14 -3 -38 -7 -55
-10 -16 -2 -39 -6 -50 -8 -11 -3 -42 -8 -70 -11 -27 -4 -68 -9 -90 -12 -22 -4
-56 -8 -75 -9 -19 -2 -35 -4 -35 -5 0 -1 -20 -3 -45 -5 -25 -1 -94 -6 -155
-11 -123 -9 -387 -9 -512 0 -77 5 -84 4 -112 -20 -37 -31 -43 -57 -46 -208 -2
-67 -6 -157 -11 -201 -13 -130 -8 -412 7 -432 1 -2 2 -6 3 -10 1 -5 6 -23 10
-42 13 -53 56 -140 74 -149 30 -15 506 -21 702 -9 174 11 264 20 420 42 148
22 172 26 215 35 22 5 56 12 75 15 19 4 40 8 45 9 27 7 131 29 140 30 6 1 16
5 23 9 6 5 12 6 12 3 0 -2 15 0 33 5 17 6 39 12 48 14 119 26 530 166 664 225
271 120 399 181 403 192 2 4 12 8 23 8 10 0 19 5 19 12 0 6 3 8 7 5 3 -4 11
-3 17 2 6 5 38 24 71 42 99 54 309 181 331 201 11 10 24 18 30 18 9 0 246 166
275 192 9 9 21 17 26 19 11 4 85 64 115 92 10 9 21 17 26 17 4 0 15 8 24 18 8
9 29 27 44 39 123 96 407 368 549 528 39 43 77 86 85 94 8 9 33 39 55 66 22
28 43 52 46 55 40 32 399 545 399 569 0 5 3 11 8 13 4 2 15 17 24 33 9 17 48
86 86 155 62 113 172 330 178 355 2 6 28 68 58 139 49 115 59 142 71 181 2 6
11 30 20 55 44 119 129 417 154 540 17 85 21 103 26 135 3 17 10 53 15 80 5
28 12 68 15 90 3 23 7 50 9 60 2 11 7 52 10 90 4 39 9 87 12 107 3 20 7 72 10
115 3 43 7 98 8 123 2 25 6 95 10 155 4 61 9 133 12 160 4 46 11 190 18 390
22 552 26 1597 11 2565 -4 283 -8 884 -9 1335 -2 766 -3 822 -20 857 -15 32
-66 80 -66 62 0 -4 -6 -1 -14 5 -11 9 -658 12 -2776 9 -1519 -1 -2762 -3
-2763 -4z"/>
<path d="M1407 8024 c-1 -1 -25 -4 -54 -8 -65 -8 -92 -18 -130 -50 -35 -30
-58 -74 -68 -131 -7 -38 -6 -7334 0 -7480 11 -224 81 -307 280 -330 184 -21
540 -27 603 -10 120 31 175 95 199 230 8 46 9 666 1 697 -3 15 -3 30 2 33 5 3
5 19 0 35 -5 17 -5 30 0 30 5 0 5 13 0 30 -5 17 -5 32 0 35 5 3 6 16 1 28 -5
12 -5 31 -1 42 4 11 4 29 1 40 -4 11 -6 45 -4 75 2 30 3 62 2 70 0 8 -2 1212
-4 2675 -2 1463 -4 2693 -5 2733 -1 62 2 79 22 107 12 19 32 37 43 40 69 21
102 25 210 24 66 -1 815 -3 1665 -3 1705 -2 1581 3 1626 -63 18 -27 19 -60 19
-928 0 -840 -6 -1170 -20 -1255 -6 -30 -12 -60 -40 -173 -14 -60 -16 -66 -70
-182 -31 -69 -118 -220 -134 -235 -3 -3 -24 -27 -46 -55 -22 -27 -67 -77 -100
-110 -61 -62 -215 -191 -215 -181 0 3 -9 -3 -20 -14 -11 -11 -27 -20 -35 -20
-8 0 -15 -3 -15 -7 0 -5 -10 -13 -23 -19 -12 -6 -59 -30 -104 -53 -79 -40
-285 -114 -348 -125 -59 -11 -75 -15 -85 -21 -6 -3 -10 0 -11 7 -1 7 -2 445
-3 973 -3 835 -6 1045 -21 1115 -12 56 -85 197 -85 165 0 -6 -4 -5 -8 1 -19
30 -179 83 -203 68 -5 -3 -9 -2 -9 3 0 9 -46 12 -345 17 -301 6 -354 -9 -402
-114 -21 -47 -26 -86 -25 -205 1 -55 3 -649 5 -1320 2 -671 5 -1220 6 -1220 2
0 4 -11 6 -25 10 -78 71 -258 95 -280 3 -3 18 -23 34 -45 81 -111 219 -196
375 -230 11 -3 30 -7 40 -9 112 -25 410 -21 611 9 52 7 125 19 130 20 3 1 25
5 50 9 25 5 70 15 100 23 30 8 64 16 75 18 29 7 186 56 215 68 14 5 30 11 35
13 6 1 21 6 35 12 14 5 30 11 35 13 15 4 177 78 198 90 10 5 48 26 85 46 37
20 86 49 109 64 23 16 46 29 51 29 5 0 17 9 27 20 10 11 24 20 32 20 7 0 16 7
19 15 4 8 12 15 20 15 8 0 14 5 14 10 0 6 6 10 14 10 8 0 16 4 18 8 2 4 35 33
75 64 40 30 69 58 66 62 -4 3 -1 6 6 6 25 0 269 256 346 364 11 16 25 33 30
40 24 28 55 76 55 86 0 5 4 10 9 10 5 0 16 15 25 33 20 40 39 70 47 77 14 11
128 241 161 325 19 50 39 99 43 110 5 11 9 22 10 25 1 3 4 12 8 20 7 19 30 92
33 105 1 6 14 55 28 110 22 87 42 184 51 250 1 11 6 42 10 69 4 27 8 70 9 95
1 26 5 51 8 56 3 6 7 575 8 1265 0 690 2 1363 2 1495 1 279 0 296 -31 351 -23
41 -92 91 -110 79 -5 -3 -12 -1 -15 3 -3 5 -22 10 -43 12 -39 3 -933 3 -1131
0 -62 -1 -116 0 -119 3 -3 3 -15 2 -27 -3 -13 -4 -29 -4 -39 1 -9 6 -17 6 -17
2 0 -8 -2479 -9 -3458 -1 -282 2 -514 3 -515 2z"/>
</g>
</svg>
